<svg width="24" height="24" viewBox="0 0 24 24" fill="none" xmlns="http://www.w3.org/2000/svg">
  <!-- Ежевика - крупная -->
  <!-- Листики сверху -->
  <path d="M12 1C12 1 9 2 8.5 3C8 3.5 8.5 4.5 9 4.5C9.5 4.5 10.5 4 12 4C13.5 4 14.5 4.5 15 4.5C15.5 4.5 16 3.5 15.5 3C15 2 12 1 12 1Z" fill="#2E7D32"/>
  <path d="M12 1V4" stroke="#1B5E20" stroke-width="1" stroke-linecap="round"/>
  <!-- Ягодки-дольки (тёмно-фиолетовые) - крупнее -->
  <circle cx="12" cy="6.5" r="3" fill="#4A148C"/>
  <circle cx="8" cy="9" r="3" fill="#6A1B9A"/>
  <circle cx="16" cy="9" r="3" fill="#6A1B9A"/>
  <circle cx="6.5" cy="13" r="2.8" fill="#7B1FA2"/>
  <circle cx="12" cy="11.5" r="3.2" fill="#4A148C"/>
  <circle cx="17.5" cy="13" r="2.8" fill="#7B1FA2"/>
  <circle cx="8.5" cy="16" r="2.8" fill="#8E24AA"/>
  <circle cx="15.5" cy="16" r="2.8" fill="#8E24AA"/>
  <circle cx="12" cy="15" r="3" fill="#7B1FA2"/>
  <circle cx="12" cy="19" r="2.5" fill="#9C27B0"/>
  <!-- Блики -->
  <circle cx="10" cy="7" r="0.8" fill="white" opacity="0.25"/>
  <circle cx="14" cy="11" r="0.6" fill="white" opacity="0.2"/>
</svg>
