<svg width="24" height="24" viewBox="0 0 24 24" fill="none" xmlns="http://www.w3.org/2000/svg">
  <!-- Смородина (гроздь) - крупная -->
  <!-- Веточка -->
  <path d="M12 1C12 1 12 4 12 6" stroke="#5D4037" stroke-width="1.5" stroke-linecap="round"/>
  <path d="M12 6C9 7.5 6 9 5 11" stroke="#6D4C41" stroke-width="1.2" stroke-linecap="round"/>
  <path d="M12 6C15 7.5 18 9 19 11" stroke="#6D4C41" stroke-width="1.2" stroke-linecap="round"/>
  <path d="M12 6C12 9 12 12 12 15" stroke="#6D4C41" stroke-width="1.2" stroke-linecap="round"/>
  <!-- Ягодки - крупнее -->
  <circle cx="5" cy="12" r="3.2" fill="#B71C1C"/>
  <circle cx="12" cy="10" r="3" fill="#C62828"/>
  <circle cx="19" cy="12" r="3.2" fill="#B71C1C"/>
  <circle cx="7" cy="17" r="3.2" fill="#D32F2F"/>
  <circle cx="12" cy="16" r="3.5" fill="#C62828"/>
  <circle cx="17" cy="17" r="3.2" fill="#D32F2F"/>
  <circle cx="12" cy="21" r="2.5" fill="#E53935"/>
  <!-- Блики -->
  <circle cx="4" cy="11" r="0.8" fill="white" opacity="0.4"/>
  <circle cx="11" cy="9" r="0.7" fill="white" opacity="0.35"/>
  <circle cx="18" cy="11" r="0.8" fill="white" opacity="0.4"/>
  <circle cx="6" cy="16" r="0.7" fill="white" opacity="0.35"/>
  <circle cx="11" cy="15" r="0.8" fill="white" opacity="0.35"/>
</svg>
