<svg width="24" height="24" viewBox="0 0 24 24" fill="none" xmlns="http://www.w3.org/2000/svg">
  <!-- Крыжовник - крупный -->
  <!-- Хвостик сверху -->
  <path d="M12 2V1" stroke="#5D4037" stroke-width="1.5" stroke-linecap="round"/>
  <!-- Основная ягода -->
  <ellipse cx="12" cy="12" rx="8" ry="9" fill="#8BC34A"/>
  <!-- Полоски (характерные для крыжовника) -->
  <path d="M6 6C7 12 7 18 6 20" stroke="#689F38" stroke-width="1" opacity="0.5"/>
  <path d="M8.5 4C9 12 9 18 8.5 21" stroke="#689F38" stroke-width="1" opacity="0.5"/>
  <path d="M11 3C11 12 11 18 11 22" stroke="#689F38" stroke-width="1" opacity="0.5"/>
  <path d="M13 3C13 12 13 18 13 22" stroke="#689F38" stroke-width="1" opacity="0.5"/>
  <path d="M15.5 4C15 12 15 18 15.5 21" stroke="#689F38" stroke-width="1" opacity="0.5"/>
  <path d="M18 6C17 12 17 18 18 20" stroke="#689F38" stroke-width="1" opacity="0.5"/>
  <!-- Чашелистик снизу -->
  <path d="M9 20C10.5 22 13.5 22 15 20" stroke="#33691E" stroke-width="1.5" stroke-linecap="round"/>
  <!-- Блик -->
  <ellipse cx="9" cy="9" rx="2" ry="3" fill="white" opacity="0.3"/>
</svg>
