<svg width="24" height="24" viewBox="0 0 24 24" fill="none" xmlns="http://www.w3.org/2000/svg">
  <!-- Клубника - крупная и сочная -->
  <!-- Листики сверху -->
  <path d="M12 2C12 2 9 3 8 4.5C7.5 5.2 8 6 8.5 6C9 6 10 5.5 12 5.5C14 5.5 15 6 15.5 6C16 6 16.5 5.2 16 4.5C15 3 12 2 12 2Z" fill="#2E7D32"/>
  <path d="M12 2V5.5" stroke="#1B5E20" stroke-width="1.5" stroke-linecap="round"/>
  <!-- Основная ягода - широкая форма -->
  <path d="M12 5C7.5 5 4.5 9 4.5 13C4.5 17 7.5 21 12 22C16.5 21 19.5 17 19.5 13C19.5 9 16.5 5 12 5Z" fill="#E53935"/>
  <!-- Блик для объёма -->
  <path d="M8 9C8 9 7 11 7 13C7 14 7.5 15 8 15C8 13 8.5 11 9 9.5C9 9 8.5 9 8 9Z" fill="#EF5350" opacity="0.6"/>
  <!-- Семечки - крупнее -->
  <circle cx="9" cy="10" r="1" fill="#FFEB3B"/>
  <circle cx="15" cy="10" r="1" fill="#FFEB3B"/>
  <circle cx="12" cy="9" r="1" fill="#FFEB3B"/>
  <circle cx="7.5" cy="13" r="0.9" fill="#FFEB3B"/>
  <circle cx="10.5" cy="12.5" r="1" fill="#FFEB3B"/>
  <circle cx="13.5" cy="12.5" r="1" fill="#FFEB3B"/>
  <circle cx="16.5" cy="13" r="0.9" fill="#FFEB3B"/>
  <circle cx="9" cy="15.5" r="0.9" fill="#FFEB3B"/>
  <circle cx="12" cy="15" r="1" fill="#FFEB3B"/>
  <circle cx="15" cy="15.5" r="0.9" fill="#FFEB3B"/>
  <circle cx="10.5" cy="18" r="0.8" fill="#FFEB3B"/>
  <circle cx="13.5" cy="18" r="0.8" fill="#FFEB3B"/>
  <circle cx="12" cy="20" r="0.6" fill="#FFEB3B"/>
</svg>
