<svg viewBox="0 0 400 180" fill="none" xmlns="http://www.w3.org/2000/svg">
  <!-- Урожай ежевики, смородины -->
  <defs>
    <linearGradient id="aug-sky" x1="0%" y1="0%" x2="0%" y2="100%">
      <stop offset="0%" stop-color="#5C9CE5"/>
      <stop offset="100%" stop-color="#82B1FF"/>
    </linearGradient>
    <linearGradient id="aug-grass" x1="0%" y1="0%" x2="0%" y2="100%">
      <stop offset="0%" stop-color="#689F38"/>
      <stop offset="100%" stop-color="#558B2F"/>
    </linearGradient>
  </defs>

  <!-- Небо -->
  <rect width="400" height="180" fill="url(#aug-sky)"/>

  <!-- Трава -->
  <rect x="0" y="125" width="400" height="55" fill="url(#aug-grass)"/>

  <!-- Куст ежевики -->
  <ellipse cx="100" cy="112" rx="55" ry="40" fill="#33691E"/>
  <ellipse cx="95" cy="107" rx="50" ry="35" fill="#558B2F"/>
  <!-- Спелая ежевика -->
  <ellipse cx="75" cy="95" rx="8" ry="11" fill="#311B92"/>
  <circle cx="72" cy="91" r="2.5" fill="#4527A0"/>
  <circle cx="78" cy="91" r="2.5" fill="#4527A0"/>
  <circle cx="75" cy="97" r="2.5" fill="#4527A0"/>
  <circle cx="72" cy="102" r="2" fill="#5E35B1"/>
  <circle cx="78" cy="102" r="2" fill="#5E35B1"/>
  <ellipse cx="100" cy="88" rx="9" ry="12" fill="#1A237E"/>
  <circle cx="97" cy="84" r="3" fill="#283593"/>
  <circle cx="103" cy="84" r="3" fill="#283593"/>
  <circle cx="100" cy="91" r="3" fill="#283593"/>
  <circle cx="97" cy="96" r="2.5" fill="#303F9F"/>
  <circle cx="103" cy="96" r="2.5" fill="#303F9F"/>
  <ellipse cx="120" cy="97" rx="7" ry="9" fill="#311B92"/>
  <circle cx="118" cy="94" r="2" fill="#4527A0"/>
  <circle cx="122" cy="94" r="2" fill="#4527A0"/>
  <circle cx="120" cy="99" r="2" fill="#4527A0"/>

  <!-- Куст чёрной смородины -->
  <ellipse cx="250" cy="115" rx="50" ry="35" fill="#33691E"/>
  <ellipse cx="245" cy="110" rx="45" ry="30" fill="#558B2F"/>
  <!-- Гроздья чёрной смородины -->
  <circle cx="230" cy="95" r="4" fill="#212121"/>
  <circle cx="237" cy="98" r="4" fill="#212121"/>
  <circle cx="233" cy="103" r="4" fill="#212121"/>
  <circle cx="240" cy="105" r="3.5" fill="#212121"/>
  <circle cx="228" cy="100" r="3.5" fill="#212121"/>
  <circle cx="260" cy="93" r="4" fill="#212121"/>
  <circle cx="267" cy="96" r="4" fill="#212121"/>
  <circle cx="263" cy="101" r="4" fill="#212121"/>
  <circle cx="270" cy="103" r="3.5" fill="#212121"/>
  <circle cx="258" cy="98" r="3.5" fill="#212121"/>
  <!-- Блики -->
  <circle cx="231" cy="94" r="1" fill="#616161"/>
  <circle cx="261" cy="92" r="1" fill="#616161"/>

  <!-- Куст красной смородины -->
  <ellipse cx="350" cy="118" rx="40" ry="28" fill="#33691E"/>
  <ellipse cx="345" cy="113" rx="35" ry="23" fill="#558B2F"/>
  <!-- Гроздья красной смородины -->
  <circle cx="335" cy="100" r="3.5" fill="#C62828"/>
  <circle cx="340" cy="103" r="3.5" fill="#D32F2F"/>
  <circle cx="337" cy="108" r="3.5" fill="#E53935"/>
  <circle cx="343" cy="110" r="3" fill="#C62828"/>
  <circle cx="355" cy="98" r="3.5" fill="#D32F2F"/>
  <circle cx="360" cy="101" r="3.5" fill="#E53935"/>
  <circle cx="357" cy="106" r="3.5" fill="#C62828"/>
  <circle cx="363" cy="108" r="3" fill="#D32F2F"/>
  <!-- Блики -->
  <circle cx="336" cy="99" r="0.8" fill="#FFCDD2"/>
  <circle cx="356" cy="97" r="0.8" fill="#FFCDD2"/>

  <!-- Вёдра с ягодами -->
  <ellipse cx="175" cy="155" rx="20" ry="12" fill="#5D4037"/>
  <rect x="155" y="143" width="40" height="15" rx="2" fill="#6D4C41"/>
  <ellipse cx="175" cy="143" rx="18" ry="8" fill="#8D6E63"/>
  <!-- Ягоды -->
  <circle cx="170" cy="141" r="3" fill="#1A237E"/>
  <circle cx="178" cy="140" r="3" fill="#311B92"/>
  <circle cx="175" cy="145" r="2.5" fill="#283593"/>

  <!-- Солнце -->
  <circle cx="50" cy="40" r="24" fill="#FFD54F"/>
  <circle cx="50" cy="40" r="17" fill="#FFEB3B"/>

  <!-- Облачка -->
  <ellipse cx="150" cy="35" rx="25" ry="14" fill="#FFFFFF" opacity="0.6"/>
  <ellipse cx="170" cy="30" rx="20" ry="12" fill="#FFFFFF" opacity="0.6"/>
</svg>
