<svg viewBox="0 0 400 180" fill="none" xmlns="http://www.w3.org/2000/svg">
  <!-- Сбор клубники, малины -->
  <defs>
    <linearGradient id="jul-sky" x1="0%" y1="0%" x2="0%" y2="100%">
      <stop offset="0%" stop-color="#64B5F6"/>
      <stop offset="100%" stop-color="#90CAF9"/>
    </linearGradient>
    <linearGradient id="jul-grass" x1="0%" y1="0%" x2="0%" y2="100%">
      <stop offset="0%" stop-color="#66BB6A"/>
      <stop offset="100%" stop-color="#43A047"/>
    </linearGradient>
  </defs>

  <!-- Небо -->
  <rect width="400" height="180" fill="url(#jul-sky)"/>

  <!-- Трава -->
  <rect x="0" y="125" width="400" height="55" fill="url(#jul-grass)"/>

  <!-- Куст клубники со спелыми ягодами -->
  <ellipse cx="80" cy="118" rx="45" ry="32" fill="#43A047"/>
  <ellipse cx="75" cy="113" rx="40" ry="27" fill="#4CAF50"/>
  <!-- Спелые клубнички -->
  <ellipse cx="60" cy="105" rx="8" ry="11" fill="#E53935"/>
  <ellipse cx="60" cy="102" rx="5" ry="3" fill="#43A047"/>
  <circle cx="58" cy="107" r="1" fill="#FFEB3B" opacity="0.8"/>
  <circle cx="62" cy="109" r="1" fill="#FFEB3B" opacity="0.8"/>
  <circle cx="60" cy="112" r="1" fill="#FFEB3B" opacity="0.8"/>
  <ellipse cx="85" cy="100" rx="9" ry="12" fill="#F44336"/>
  <ellipse cx="85" cy="97" rx="5.5" ry="3.5" fill="#43A047"/>
  <circle cx="83" cy="102" r="1" fill="#FFEB3B" opacity="0.8"/>
  <circle cx="87" cy="104" r="1" fill="#FFEB3B" opacity="0.8"/>
  <circle cx="85" cy="108" r="1" fill="#FFEB3B" opacity="0.8"/>
  <ellipse cx="100" cy="108" rx="7" ry="9" fill="#EF5350"/>
  <ellipse cx="100" cy="105" rx="4" ry="2.5" fill="#43A047"/>

  <!-- Корзина с клубникой -->
  <ellipse cx="160" cy="145" rx="30" ry="18" fill="#D7CCC8"/>
  <path d="M130 145 Q145 120 160 125 Q175 120 190 145" fill="none" stroke="#8D6E63" stroke-width="3"/>
  <ellipse cx="160" cy="145" rx="28" ry="15" fill="#EFEBE9"/>
  <!-- Ягоды в корзине -->
  <ellipse cx="150" cy="140" rx="6" ry="8" fill="#E53935"/>
  <ellipse cx="160" cy="138" rx="7" ry="9" fill="#F44336"/>
  <ellipse cx="170" cy="140" rx="6" ry="8" fill="#EF5350"/>
  <ellipse cx="155" cy="145" rx="5" ry="7" fill="#E53935"/>
  <ellipse cx="165" cy="144" rx="5" ry="7" fill="#F44336"/>

  <!-- Куст малины со спелыми ягодами -->
  <ellipse cx="280" cy="115" rx="50" ry="38" fill="#43A047"/>
  <ellipse cx="275" cy="110" rx="45" ry="33" fill="#4CAF50"/>
  <!-- Спелые малинки -->
  <ellipse cx="260" cy="98" rx="7" ry="10" fill="#E91E63"/>
  <circle cx="257" cy="94" r="2.5" fill="#EC407A"/>
  <circle cx="263" cy="94" r="2.5" fill="#EC407A"/>
  <circle cx="260" cy="100" r="2.5" fill="#EC407A"/>
  <circle cx="257" cy="103" r="2" fill="#F06292"/>
  <circle cx="263" cy="103" r="2" fill="#F06292"/>
  <ellipse cx="285" cy="92" rx="8" ry="11" fill="#D81B60"/>
  <circle cx="282" cy="88" r="3" fill="#E91E63"/>
  <circle cx="288" cy="88" r="3" fill="#E91E63"/>
  <circle cx="285" cy="95" r="3" fill="#E91E63"/>
  <circle cx="282" cy="100" r="2.5" fill="#EC407A"/>
  <circle cx="288" cy="100" r="2.5" fill="#EC407A"/>
  <ellipse cx="305" cy="100" rx="6" ry="8" fill="#EC407A"/>
  <circle cx="303" cy="97" r="2" fill="#F06292"/>
  <circle cx="307" cy="97" r="2" fill="#F06292"/>
  <circle cx="305" cy="102" r="2" fill="#F06292"/>

  <!-- Рука собирает ягоду -->
  <ellipse cx="320" cy="85" rx="12" ry="8" fill="#FFCCBC"/>
  <rect x="330" y="80" width="25" height="10" rx="4" fill="#FFCCBC"/>

  <!-- Солнце -->
  <circle cx="360" cy="35" r="25" fill="#FFEE58"/>
  <circle cx="360" cy="35" r="18" fill="#FFF59D"/>

  <!-- Птичка -->
  <ellipse cx="50" cy="50" rx="10" ry="7" fill="#1976D2"/>
  <polygon points="40,50 32,48 32,52" fill="#FFA726"/>
  <circle cx="56" cy="48" r="2" fill="#0D47A1"/>
  <path d="M60 50 Q70 45 75 50" stroke="#1976D2" stroke-width="2" fill="none"/>
</svg>
