<svg viewBox="0 0 80 80" fill="none" xmlns="http://www.w3.org/2000/svg">
  <!-- Урожай - корзина с ягодами -->
  <defs>
    <linearGradient id="harv-bg" x1="0%" y1="0%" x2="0%" y2="100%">
      <stop offset="0%" stop-color="#FFF8E1"/>
      <stop offset="100%" stop-color="#FFECB3"/>
    </linearGradient>
  </defs>

  <!-- Фон круглый -->
  <circle cx="40" cy="40" r="38" fill="url(#harv-bg)"/>

  <!-- Корзина -->
  <ellipse cx="40" cy="62" rx="28" ry="12" fill="#D7CCC8"/>
  <path d="M12 55 Q25 35 40 40 Q55 35 68 55" fill="none" stroke="#8D6E63" stroke-width="4"/>
  <ellipse cx="40" cy="55" rx="26" ry="10" fill="#EFEBE9"/>
  <!-- Плетение корзины -->
  <path d="M15 58 Q40 52 65 58" stroke="#BCAAA4" stroke-width="1" fill="none"/>
  <path d="M14 62 Q40 56 66 62" stroke="#BCAAA4" stroke-width="1" fill="none"/>
  <path d="M16 66 Q40 60 64 66" stroke="#BCAAA4" stroke-width="1" fill="none"/>

  <!-- Клубника в корзине -->
  <ellipse cx="28" cy="48" rx="7" ry="9" fill="#E53935"/>
  <ellipse cx="28" cy="45" rx="4" ry="2.5" fill="#43A047"/>
  <circle cx="26" cy="50" r="1" fill="#FFEB3B" opacity="0.7"/>
  <circle cx="30" cy="52" r="1" fill="#FFEB3B" opacity="0.7"/>

  <ellipse cx="42" cy="46" rx="8" ry="10" fill="#F44336"/>
  <ellipse cx="42" cy="43" rx="5" ry="3" fill="#4CAF50"/>
  <circle cx="40" cy="48" r="1" fill="#FFEB3B" opacity="0.7"/>
  <circle cx="44" cy="50" r="1" fill="#FFEB3B" opacity="0.7"/>
  <circle cx="42" cy="53" r="1" fill="#FFEB3B" opacity="0.7"/>

  <ellipse cx="55" cy="49" rx="6" ry="8" fill="#EF5350"/>
  <ellipse cx="55" cy="46" rx="3.5" ry="2" fill="#43A047"/>
  <circle cx="53" cy="51" r="0.8" fill="#FFEB3B" opacity="0.7"/>
  <circle cx="57" cy="52" r="0.8" fill="#FFEB3B" opacity="0.7"/>

  <!-- Малинки -->
  <ellipse cx="35" cy="52" rx="5" ry="6" fill="#E91E63"/>
  <circle cx="33" cy="50" r="2" fill="#EC407A"/>
  <circle cx="37" cy="50" r="2" fill="#EC407A"/>
  <circle cx="35" cy="54" r="2" fill="#EC407A"/>

  <ellipse cx="48" cy="53" rx="4" ry="5" fill="#D81B60"/>
  <circle cx="46" cy="51" r="1.5" fill="#E91E63"/>
  <circle cx="50" cy="51" r="1.5" fill="#E91E63"/>
  <circle cx="48" cy="55" r="1.5" fill="#E91E63"/>

  <!-- Листик сверху -->
  <ellipse cx="25" cy="42" rx="5" ry="3" fill="#66BB6A" transform="rotate(-30 25 42)"/>
  <ellipse cx="58" cy="44" rx="4" ry="2.5" fill="#4CAF50" transform="rotate(25 58 44)"/>
</svg>
