<svg viewBox="0 0 80 80" fill="none" xmlns="http://www.w3.org/2000/svg">
  <!-- Прочее - садовые инструменты -->
  <defs>
    <linearGradient id="other-bg" x1="0%" y1="0%" x2="0%" y2="100%">
      <stop offset="0%" stop-color="#F5F5F5"/>
      <stop offset="100%" stop-color="#E0E0E0"/>
    </linearGradient>
  </defs>

  <!-- Фон круглый -->
  <circle cx="40" cy="40" r="38" fill="url(#other-bg)"/>

  <!-- Лопата -->
  <rect x="18" y="25" width="5" height="45" rx="2" fill="#8D6E63"/>
  <path d="M10 22 Q20 10 30 22 L28 35 Q20 30 12 35 Z" fill="#78909C"/>
  <rect x="12" y="30" width="16" height="5" rx="1" fill="#607D8B"/>

  <!-- Грабли -->
  <rect x="55" y="20" width="5" height="50" rx="2" fill="#A1887F"/>
  <rect x="45" y="15" width="25" height="8" rx="2" fill="#78909C"/>
  <line x1="48" y1="23" x2="48" y2="35" stroke="#607D8B" stroke-width="2"/>
  <line x1="53" y1="23" x2="53" y2="35" stroke="#607D8B" stroke-width="2"/>
  <line x1="58" y1="23" x2="58" y2="35" stroke="#607D8B" stroke-width="2"/>
  <line x1="63" y1="23" x2="63" y2="35" stroke="#607D8B" stroke-width="2"/>
  <line x1="68" y1="23" x2="68" y2="35" stroke="#607D8B" stroke-width="2"/>

  <!-- Перчатки -->
  <ellipse cx="40" cy="58" rx="12" ry="10" fill="#4CAF50"/>
  <rect x="32" y="50" width="16" height="12" rx="3" fill="#66BB6A"/>
  <!-- Пальцы -->
  <rect x="30" y="42" width="4" height="12" rx="2" fill="#4CAF50"/>
  <rect x="35" y="40" width="4" height="14" rx="2" fill="#66BB6A"/>
  <rect x="40" y="39" width="4" height="15" rx="2" fill="#4CAF50"/>
  <rect x="45" y="40" width="4" height="14" rx="2" fill="#66BB6A"/>
  <rect x="50" y="44" width="4" height="10" rx="2" fill="#4CAF50"/>
  <!-- Большой палец -->
  <ellipse cx="28" cy="55" rx="5" ry="8" fill="#4CAF50" transform="rotate(-20 28 55)"/>

  <!-- Секатор маленький -->
  <ellipse cx="68" cy="60" rx="4" ry="8" fill="#455A64" transform="rotate(20 68 60)"/>
  <ellipse cx="72" cy="58" rx="4" ry="8" fill="#37474F" transform="rotate(-20 72 58)"/>
  <rect x="66" y="66" width="12" height="4" rx="1.5" fill="#E53935" transform="rotate(10 66 66)"/>
</svg>
