<svg viewBox="0 0 80 80" fill="none" xmlns="http://www.w3.org/2000/svg">
  <!-- Защита - опрыскивание кустов -->
  <defs>
    <linearGradient id="prot-sky" x1="0%" y1="0%" x2="0%" y2="100%">
      <stop offset="0%" stop-color="#FFEBEE"/>
      <stop offset="100%" stop-color="#FFCDD2"/>
    </linearGradient>
  </defs>

  <!-- Фон круглый -->
  <circle cx="40" cy="40" r="38" fill="url(#prot-sky)"/>

  <!-- Куст -->
  <ellipse cx="55" cy="55" rx="22" ry="20" fill="#4CAF50"/>
  <ellipse cx="52" cy="52" rx="18" ry="16" fill="#66BB6A"/>

  <!-- Опрыскиватель -->
  <rect x="8" y="35" width="18" height="30" rx="3" fill="#42A5F5"/>
  <rect x="8" y="35" width="18" height="8" rx="3" fill="#1E88E5"/>
  <rect x="14" y="28" width="6" height="10" rx="2" fill="#1976D2"/>
  <!-- Ручка насоса -->
  <rect x="10" y="22" width="4" height="15" rx="1" fill="#90A4AE"/>
  <rect x="8" y="18" width="8" height="6" rx="2" fill="#78909C"/>

  <!-- Шланг -->
  <path d="M26 45 Q35 40 40 35" stroke="#1565C0" stroke-width="3" fill="none"/>

  <!-- Распылитель -->
  <rect x="38" y="30" width="12" height="8" rx="2" fill="#1976D2"/>
  <polygon points="50,32 58,30 58,38 50,36" fill="#1565C0"/>

  <!-- Брызги -->
  <ellipse cx="62" cy="32" rx="3" ry="2" fill="#81D4FA" opacity="0.8"/>
  <ellipse cx="66" cy="36" rx="2.5" ry="1.5" fill="#4FC3F7" opacity="0.7"/>
  <ellipse cx="64" cy="40" rx="3" ry="2" fill="#81D4FA" opacity="0.8"/>
  <ellipse cx="68" cy="44" rx="2" ry="1.5" fill="#4FC3F7" opacity="0.6"/>
  <ellipse cx="60" cy="45" rx="2.5" ry="1.5" fill="#81D4FA" opacity="0.7"/>
  <ellipse cx="70" cy="38" rx="2" ry="1" fill="#B3E5FC" opacity="0.5"/>
  <ellipse cx="65" cy="48" rx="2" ry="1.5" fill="#4FC3F7" opacity="0.6"/>

  <!-- Капли на кусте -->
  <circle cx="48" cy="48" r="1.5" fill="#81D4FA" opacity="0.7"/>
  <circle cx="55" cy="52" r="1.5" fill="#4FC3F7" opacity="0.6"/>
  <circle cx="60" cy="55" r="1.5" fill="#81D4FA" opacity="0.7"/>
  <circle cx="52" cy="58" r="1" fill="#B3E5FC" opacity="0.5"/>
</svg>
